<svg xmlns="http://www.w3.org/2000/svg" version="1.1" xmlns:xlink="http://www.w3.org/1999/xlink" xmlns:svgjs="http://svgjs.com/svgjs" width="1440" height="560" preserveAspectRatio="none" viewBox="0 0 1440 560"><g mask="url(&quot;#SvgjsMask1318&quot;)" fill="none"><rect width="1440" height="560" x="0" y="0" fill="url(#SvgjsLinearGradient1319)"></rect><path d="M0 365.74L10 352.75L20 354.14L30 342.31L40 400.4L50 409.36L60 375.72L70 316.35L80 366.55L90 400.44L100 443.51L110 509.99L120 537.75L130 479.69L140 409.81L150 417.07L160 459.08L170 409.78L180 399.22L190 418.46L200 449.56L210 507.83L220 476.06L230 520.3L240 502.97L250 547.81L260 486.09L270 503.54L280 445.31L290 426.98L300 369.23L310 374.16L320 387.99L330 434.44L340 370.56L350 339.79L360 329.65L370 352.87L380 337.03L390 274.74L400 243.7L410 248.8L420 286.98L430 294.44L440 289.56L450 244.63L460 294.35L470 247.14L480 295.16L490 282.99L500 333.97L510 397.29L520 363.22L530 364.15L540 422.82L550 433.66L560 369.06L570 430.9L580 482.28L590 474.36L600 409.34L610 440.48L620 388.81L630 415.06L640 452.47L650 407.44L660 425.77L670 453.8L680 430.77L690 442.94L700 405.44L710 380.95L720 421.07L730 483.4L740 487.08L750 491.86L760 424.6L770 384.43L780 421.91L790 358.55L800 344.19L810 389.93L820 443.64L830 484.49L840 420.72L850 483.76L860 544.38L870 536.15L880 489.9L890 500.97L900 527.76L910 486.77L920 530.41L930 506.2L940 489.46L950 487.51L960 427.08L970 439.35L980 465.93L990 426.86L1000 478.34L1010 540.93L1020 474.86L1030 416.75L1040 391.22L1050 348.28L1060 286.76L1070 291.64L1080 252.01L1090 297.45L1100 316.1L1110 379.16L1120 388.1L1130 386.28L1140 442.09L1150 382.09L1160 390.24L1170 379.48L1180 394.29L1190 357.41L1200 372.62L1210 434.85L1220 502.3L1230 465.32L1240 532.79L1250 545.03L1260 531.87L1270 547.82L1280 536.77L1290 547.06L1300 485.32L1310 517.06L1320 450.43L1330 443.12L1340 408.71L1350 439.65L1360 506.55L1370 497.29L1380 500.29L1390 540.28L1400 507.53L1410 448.55L1420 492.85L1430 533.11L1440 547.85" stroke="rgba(15, 157, 88, 1)" stroke-width="2"></path><path d="M0 365.74L10 352.75L20 354.14L30 342.31L40 400.4L50 409.36L60 375.72L70 316.35L80 366.55L90 400.44L100 443.51L110 509.99L120 537.75L130 479.69L140 409.81L150 417.07L160 459.08L170 409.78L180 399.22L190 418.46L200 449.56L210 507.83L220 476.06L230 520.3L240 502.97L250 547.81L260 486.09L270 503.54L280 445.31L290 426.98L300 369.23L310 374.16L320 387.99L330 434.44L340 370.56L350 339.79L360 329.65L370 352.87L380 337.03L390 274.74L400 243.7L410 248.8L420 286.98L430 294.44L440 289.56L450 244.63L460 294.35L470 247.14L480 295.16L490 282.99L500 333.97L510 397.29L520 363.22L530 364.15L540 422.82L550 433.66L560 369.06L570 430.9L580 482.28L590 474.36L600 409.34L610 440.48L620 388.81L630 415.06L640 452.47L650 407.44L660 425.77L670 453.8L680 430.77L690 442.94L700 405.44L710 380.95L720 421.07L730 483.4L740 487.08L750 491.86L760 424.6L770 384.43L780 421.91L790 358.55L800 344.19L810 389.93L820 443.64L830 484.49L840 420.72L850 483.76L860 544.38L870 536.15L880 489.9L890 500.97L900 527.76L910 486.77L920 530.41L930 506.2L940 489.46L950 487.51L960 427.08L970 439.35L980 465.93L990 426.86L1000 478.34L1010 540.93L1020 474.86L1030 416.75L1040 391.22L1050 348.28L1060 286.76L1070 291.64L1080 252.01L1090 297.45L1100 316.1L1110 379.16L1120 388.1L1130 386.28L1140 442.09L1150 382.09L1160 390.24L1170 379.48L1180 394.29L1190 357.41L1200 372.62L1210 434.85L1220 502.3L1230 465.32L1240 532.79L1250 545.03L1260 531.87L1270 547.82L1280 536.77L1290 547.06L1300 485.32L1310 517.06L1320 450.43L1330 443.12L1340 408.71L1350 439.65L1360 506.55L1370 497.29L1380 500.29L1390 540.28L1400 507.53L1410 448.55L1420 492.85L1430 533.11L1440 547.85L1440 560L0 560z" fill="url(#SvgjsLinearGradient1320)"></path></g><defs><mask id="SvgjsMask1318"><rect width="1440" height="560" fill="#ffffff"></rect></mask><linearGradient x1="50%" y1="100%" x2="50%" y2="0%" gradientUnits="userSpaceOnUse" id="SvgjsLinearGradient1319"><stop stop-color="#0e2a47" offset="0"></stop><stop stop-color="rgba(0, 97, 20, 1)" offset="1"></stop></linearGradient><linearGradient x1="50%" y1="0%" x2="50%" y2="100%" id="SvgjsLinearGradient1320"><stop stop-opacity="0.65" stop-color="rgba(15, 157, 88, 1)" offset="0"></stop><stop stop-opacity="0" stop-color="#55efa4" offset="0.8"></stop></linearGradient></defs></svg>